<svg width="14" height="14" viewBox="0 0 14 14" fill="none" xmlns="http://www.w3.org/2000/svg">
<path d="M6.88926 9.61914C6.90241 9.63595 6.91922 9.64954 6.93841 9.65889C6.95759 9.66824 6.97866 9.6731 7 9.6731C7.02134 9.6731 7.04241 9.66824 7.06159 9.65889C7.08078 9.64954 7.09759 9.63595 7.11074 9.61914L9.07949 7.12832C9.15156 7.03691 9.08652 6.90156 8.96875 6.90156H7.66621V0.953125C7.66621 0.875781 7.60293 0.8125 7.52559 0.8125H6.4709C6.39355 0.8125 6.33027 0.875781 6.33027 0.953125V6.8998H5.03125C4.91348 6.8998 4.84844 7.03516 4.92051 7.12656L6.88926 9.61914ZM13.4336 9.00391H12.3789C12.3016 9.00391 12.2383 9.06719 12.2383 9.14453V11.8516H1.76172V9.14453C1.76172 9.06719 1.69844 9.00391 1.62109 9.00391H0.566406C0.489062 9.00391 0.425781 9.06719 0.425781 9.14453V12.625C0.425781 12.9361 0.677148 13.1875 0.988281 13.1875H13.0117C13.3229 13.1875 13.5742 12.9361 13.5742 12.625V9.14453C13.5742 9.06719 13.5109 9.00391 13.4336 9.00391Z" fill="#FF7B31"/>
</svg>
