<svg width="64" height="64" viewBox="0 0 64 64" fill="none" xmlns="http://www.w3.org/2000/svg">
<g filter="url(#filter0_d)">
<circle cx="28" cy="28" r="25" fill="#FF4C29"/>
</g>
<path d="M24.7773 33.2695C24.7773 31.4466 24.9987 29.9948 25.4414 28.9141C25.8841 27.8333 26.6914 26.7721 27.8633 25.7305C29.0482 24.6758 29.8359 23.8229 30.2266 23.1719C30.6172 22.5078 30.8125 21.8112 30.8125 21.082C30.8125 18.8815 29.7969 17.7812 27.7656 17.7812C26.8021 17.7812 26.0273 18.0807 25.4414 18.6797C24.8685 19.2656 24.569 20.0794 24.543 21.1211H18.8789C18.9049 18.6341 19.7057 16.6875 21.2812 15.2812C22.8698 13.875 25.0312 13.1719 27.7656 13.1719C30.526 13.1719 32.668 13.8424 34.1914 15.1836C35.7148 16.5117 36.4766 18.3932 36.4766 20.8281C36.4766 21.9349 36.2292 22.9831 35.7344 23.9727C35.2396 24.9492 34.3737 26.0365 33.1367 27.2344L31.5547 28.7383C30.5651 29.6888 29.9987 30.8021 29.8555 32.0781L29.7773 33.2695H24.7773ZM24.2109 39.2656C24.2109 38.3932 24.5039 37.6771 25.0898 37.1172C25.6888 36.5443 26.4505 36.2578 27.375 36.2578C28.2995 36.2578 29.0547 36.5443 29.6406 37.1172C30.2396 37.6771 30.5391 38.3932 30.5391 39.2656C30.5391 40.125 30.2461 40.8346 29.6602 41.3945C29.0872 41.9544 28.3255 42.2344 27.375 42.2344C26.4245 42.2344 25.6562 41.9544 25.0703 41.3945C24.4974 40.8346 24.2109 40.125 24.2109 39.2656Z" fill="white"/>
<defs>
<filter id="filter0_d" x="0" y="0" width="64" height="64" filterUnits="userSpaceOnUse" color-interpolation-filters="sRGB">
<feFlood flood-opacity="0" result="BackgroundImageFix"/>
<feColorMatrix in="SourceAlpha" type="matrix" values="0 0 0 0 0 0 0 0 0 0 0 0 0 0 0 0 0 0 127 0" result="hardAlpha"/>
<feOffset dx="4" dy="4"/>
<feGaussianBlur stdDeviation="3.5"/>
<feComposite in2="hardAlpha" operator="out"/>
<feColorMatrix type="matrix" values="0 0 0 0 0 0 0 0 0 0 0 0 0 0 0 0 0 0 0.05 0"/>
<feBlend mode="normal" in2="BackgroundImageFix" result="effect1_dropShadow"/>
<feBlend mode="normal" in="SourceGraphic" in2="effect1_dropShadow" result="shape"/>
</filter>
</defs>
</svg>
