<svg width="53" height="53" viewBox="0 0 53 53" fill="none" xmlns="http://www.w3.org/2000/svg">
<path d="M26.5 53C19.4718 53 12.7314 50.208 7.76167 45.2383C2.79195 40.2686 0 33.5282 0 26.5C0 19.4718 2.79195 12.7314 7.76167 7.76167C12.7314 2.79195 19.4718 0 26.5 0C33.5282 0 40.2686 2.79195 45.2383 7.76167C50.208 12.7314 53 19.4718 53 26.5C53 33.5282 50.208 40.2686 45.2383 45.2383C40.2686 50.208 33.5282 53 26.5 53V53ZM38.0938 28.1562C38.533 28.1562 38.9543 27.9818 39.2649 27.6711C39.5755 27.3605 39.75 26.9393 39.75 26.5C39.75 26.0607 39.5755 25.6395 39.2649 25.3289C38.9543 25.0182 38.533 24.8438 38.0938 24.8437H18.9044L26.0164 17.7351C26.1704 17.5811 26.2925 17.3983 26.3759 17.1971C26.4592 16.9959 26.5021 16.7803 26.5021 16.5625C26.5021 16.3447 26.4592 16.1291 26.3759 15.9279C26.2925 15.7267 26.1704 15.5439 26.0164 15.3899C25.8624 15.2359 25.6796 15.1137 25.4784 15.0304C25.2772 14.9471 25.0615 14.9042 24.8438 14.9042C24.626 14.9042 24.4103 14.9471 24.2091 15.0304C24.0079 15.1137 23.8251 15.2359 23.6711 15.3899L13.7336 25.3274C13.5794 25.4812 13.457 25.664 13.3735 25.8652C13.29 26.0664 13.247 26.2821 13.247 26.5C13.247 26.7179 13.29 26.9336 13.3735 27.1348C13.457 27.336 13.5794 27.5188 13.7336 27.6726L23.6711 37.6101C23.8251 37.7641 24.0079 37.8863 24.2091 37.9696C24.4103 38.0529 24.626 38.0958 24.8438 38.0958C25.0615 38.0958 25.2772 38.0529 25.4784 37.9696C25.6796 37.8863 25.8624 37.7641 26.0164 37.6101C26.1704 37.4561 26.2925 37.2733 26.3759 37.0721C26.4592 36.8709 26.5021 36.6553 26.5021 36.4375C26.5021 36.2197 26.4592 36.0041 26.3759 35.8029C26.2925 35.6017 26.1704 35.4189 26.0164 35.2649L18.9044 28.1562H38.0938Z" fill="#334756"/>
</svg>
