<svg width="12" height="20" viewBox="0 0 12 20" fill="none" xmlns="http://www.w3.org/2000/svg">
<path d="M9.69968 11L1.20768 19.727C1.13776 19.7973 1.08249 19.8808 1.04505 19.9726C1.00762 20.0645 0.988768 20.1628 0.989592 20.262C0.990416 20.3611 1.0109 20.4592 1.04985 20.5503C1.08881 20.6415 1.14546 20.7241 1.21654 20.7933C1.28761 20.8624 1.3717 20.9168 1.46392 20.9532C1.55615 20.9897 1.65469 21.0075 1.75384 21.0056C1.85299 21.0037 1.95079 20.9822 2.04156 20.9423C2.13233 20.9023 2.21429 20.8448 2.28268 20.773L11.2827 11.523C11.4189 11.383 11.4951 11.1953 11.4951 11C11.4951 10.8046 11.4189 10.617 11.2827 10.477L2.28268 1.22697C2.21429 1.15516 2.13233 1.09762 2.04156 1.05769C1.95079 1.01776 1.85299 0.996228 1.75384 0.99434C1.65469 0.992452 1.55615 1.01025 1.46392 1.04669C1.3717 1.08314 1.28761 1.13752 1.21654 1.20667C1.14546 1.27583 1.08881 1.3584 1.04985 1.44959C1.0109 1.54079 0.990416 1.63881 0.989592 1.73797C0.988768 1.83714 1.00762 1.93548 1.04505 2.02731C1.08249 2.11915 1.13776 2.20264 1.20768 2.27297L9.70068 11H9.69968Z" fill="#343434"/>
</svg>
