<svg width="12" height="22" viewBox="0 0 12 22" fill="none" xmlns="http://www.w3.org/2000/svg">
<path d="M2.29642 11L10.7884 2.27303C10.8583 2.2027 10.9136 2.1192 10.951 2.02737C10.9885 1.93554 11.0073 1.8372 11.0065 1.73803C11.0057 1.63887 10.9852 1.54085 10.9462 1.44965C10.9073 1.35846 10.8506 1.27589 10.7796 1.20673C10.7085 1.13757 10.6244 1.0832 10.5322 1.04675C10.4399 1.01031 10.3414 0.992511 10.2423 0.994399C10.1431 0.996286 10.0453 1.01782 9.95453 1.05775C9.86376 1.09768 9.78181 1.15522 9.71342 1.22703L0.713416 10.477C0.577194 10.617 0.500977 10.8047 0.500977 11C0.500977 11.1954 0.577194 11.383 0.713416 11.523L9.71342 20.773C9.78181 20.8448 9.86376 20.9024 9.95453 20.9423C10.0453 20.9822 10.1431 21.0038 10.2423 21.0057C10.3414 21.0075 10.4399 20.9898 10.5322 20.9533C10.6244 20.9169 10.7085 20.8625 10.7796 20.7933C10.8506 20.7242 10.9073 20.6416 10.9462 20.5504C10.9852 20.4592 11.0057 20.3612 11.0065 20.262C11.0073 20.1629 10.9885 20.0645 10.951 19.9727C10.9136 19.8809 10.8583 19.7974 10.7884 19.727L2.29542 11H2.29642Z" fill="#343434"/>
</svg>
