<svg width="50" height="50" viewBox="0 0 50 50" fill="none" xmlns="http://www.w3.org/2000/svg">
<path d="M4.6875 25C4.6875 36.2178 13.7822 45.3125 25 45.3125C36.2178 45.3125 45.3125 36.2178 45.3125 25C45.3125 13.7822 36.2178 4.6875 25 4.6875C13.7822 4.6875 4.6875 13.7822 4.6875 25ZM29.8213 25L21.5518 16.7295C21.2711 16.4341 21.1169 16.0407 21.1222 15.6333C21.1274 15.2258 21.2916 14.8366 21.5797 14.5484C21.8678 14.2603 22.2571 14.0961 22.6645 14.0909C23.072 14.0857 23.4653 14.2399 23.7607 14.5205L33.1357 23.8955C33.4285 24.1885 33.593 24.5858 33.593 25C33.593 25.4142 33.4285 25.8115 33.1357 26.1045L23.7607 35.4795C23.4653 35.7601 23.072 35.9143 22.6645 35.9091C22.2571 35.9039 21.8678 35.7397 21.5797 35.4516C21.2916 35.1634 21.1274 34.7742 21.1222 34.3667C21.1169 33.9593 21.2711 33.5659 21.5518 33.2705L29.8213 25Z" fill="#334756"/>
</svg>
