<svg width="50" height="50" viewBox="0 0 50 50" fill="none" xmlns="http://www.w3.org/2000/svg">
<path d="M45.3125 25C45.3125 13.7822 36.2178 4.6875 25 4.6875C13.7822 4.6875 4.6875 13.7822 4.6875 25C4.6875 36.2178 13.7822 45.3125 25 45.3125C36.2178 45.3125 45.3125 36.2178 45.3125 25ZM20.1787 25L28.4482 33.2705C28.7289 33.5659 28.8831 33.9593 28.8778 34.3667C28.8726 34.7742 28.7084 35.1634 28.4203 35.4516C28.1322 35.7397 27.7429 35.9039 27.3355 35.9091C26.928 35.9143 26.5347 35.7601 26.2393 35.4795L16.8643 26.1045C16.5715 25.8115 16.407 25.4142 16.407 25C16.407 24.5858 16.5715 24.1885 16.8643 23.8955L26.2393 14.5205C26.5347 14.2399 26.928 14.0857 27.3355 14.0909C27.7429 14.0961 28.1322 14.2603 28.4203 14.5484C28.7084 14.8366 28.8726 15.2258 28.8778 15.6333C28.8831 16.0407 28.7289 16.4341 28.4482 16.7295L20.1787 25Z" fill="#334756"/>
</svg>
